<?xml version="1.0" encoding="utf-8"?>
<svg width="48px" height="48px" viewBox="0 0 48 48" xmlns="http://www.w3.org/2000/svg">
  <polygon id="Fill-1" fill="#00529B" points="0 48 48 48 48 0 0 0"/>
  <path d="M 36.037 12.316 C 33.19 12.574 31.414 12.761 29.896 13.159 C 32.325 13.207 34.637 13.581 36.225 15.689 C 30.83 16.439 25.459 17.47 21.373 18.804 C 16.982 20.21 13.409 21.756 12.406 23.278 C 12.125 23.724 12.195 24.591 13.152 25.013 C 14.6 25.621 16.936 26.044 16.959 26.372 C 16.982 26.887 13.457 27.941 10.747 28.339 C 10.934 26.301 11.588 24.24 13.129 22.155 C 14.717 20.094 16.305 18.454 19.878 16.181 C 15.675 17.798 10.653 20.726 7.572 23.373 C 4.863 25.692 2.925 27.894 2.761 30.658 C 1.92 29.393 1.523 28.292 1.5 26.863 C 1.5 25.434 2.34 23.912 3.228 22.717 L 4.441 21.194 C 6.801 18.641 10.163 16.626 14.974 14.846 C 20.159 12.926 25.366 12.152 30.41 12.012 C 32.979 11.942 35.01 12.199 36.037 12.316 Z M 11.985 35.061 C 14.81 34.804 16.586 34.617 18.104 34.219 C 15.675 34.172 13.363 33.797 11.775 31.688 C 17.169 30.938 22.54 29.908 26.627 28.573 C 31.016 27.167 34.591 25.621 35.594 24.099 C 35.874 23.654 35.804 22.786 34.847 22.365 C 33.4 21.757 31.064 21.334 31.04 21.007 C 31.016 20.492 34.543 19.437 37.252 19.039 C 37.066 21.077 36.411 23.139 34.871 25.223 C 33.283 27.285 31.695 28.924 28.122 31.197 C 32.325 29.581 37.346 26.652 40.428 24.006 C 43.137 21.686 45.076 19.484 45.239 16.721 C 46.08 17.985 46.476 19.086 46.5 20.515 C 46.5 20.773 46.408 21.366 46.338 21.6 C 46.338 21.6 46.209 22.189 45.939 22.74 C 45.722 23.184 44.889 24.591 44.304 25.317 C 41.922 28.316 38.326 30.541 33.026 32.532 C 27.841 34.452 22.634 35.226 17.59 35.366 C 15.021 35.436 12.989 35.156 11.985 35.061 Z" id="Combined-Shape" fill="#FFFFFF"/>
</svg>